<svg xmlns:xlink="http://www.w3.org/1999/xlink" xmlns="http://www.w3.org/2000/svg" width="1436px" height="330px" viewBox="0 0 1436 330" style="overflow: hidden; display: block; width: 1436px; height: 330px;"><defs/><g style="pointer-events:visiblePainted" transform="translate(11.355962284934137 0)" image-rendering="auto" shape-rendering="auto"><g><path fill="none" stroke="rgb(169,169,169)" d="M 168.33333333333334,240 L 168.33333333333334,250 L 35,250 L 35,270" stroke-opacity="1" stroke-width="1" stroke-linecap="butt" stroke-linejoin="miter" stroke-miterlimit="10"/></g><g><path fill="none" stroke="rgb(169,169,169)" d="M 185,240 L 185,270" stroke-opacity="1" stroke-width="1" stroke-linecap="butt" stroke-linejoin="miter" stroke-miterlimit="10"/></g><g><path fill="none" stroke="rgb(169,169,169)" d="M 201.66666666666666,240 L 201.66666666666666,250 L 335,250 L 335,270" stroke-opacity="1" stroke-width="1" stroke-linecap="butt" stroke-linejoin="miter" stroke-miterlimit="10"/></g><g><path fill="none" stroke="rgb(169,169,169)" d="M 185,160 L 185,180" stroke-opacity="1" stroke-width="1" stroke-linecap="butt" stroke-linejoin="miter" stroke-miterlimit="10"/></g><g><path fill="none" stroke="rgb(169,169,169)" d="M 622.5,60 L 622.5,70 L 185,70 L 185,100" stroke-opacity="1" stroke-width="1" stroke-linecap="butt" stroke-linejoin="miter" stroke-miterlimit="10"/></g><g><path fill="none" stroke="rgb(169,169,169)" d="M 618.3333333333334,240 L 618.3333333333334,250 L 485,250 L 485,270" stroke-opacity="1" stroke-width="1" stroke-linecap="butt" stroke-linejoin="miter" stroke-miterlimit="10"/></g><g><path fill="none" stroke="rgb(169,169,169)" d="M 635,240 L 635,270" stroke-opacity="1" stroke-width="1" stroke-linecap="butt" stroke-linejoin="miter" stroke-miterlimit="10"/></g><g><path fill="none" stroke="rgb(169,169,169)" d="M 651.6666666666666,240 L 651.6666666666666,250 L 785,250 L 785,270" stroke-opacity="1" stroke-width="1" stroke-linecap="butt" stroke-linejoin="miter" stroke-miterlimit="10"/></g><g><path fill="none" stroke="rgb(169,169,169)" d="M 635,160 L 635,180" stroke-opacity="1" stroke-width="1" stroke-linecap="butt" stroke-linejoin="miter" stroke-miterlimit="10"/></g><g><path fill="none" stroke="rgb(169,169,169)" d="M 635,60 L 635,100" stroke-opacity="1" stroke-width="1" stroke-linecap="butt" stroke-linejoin="miter" stroke-miterlimit="10"/></g><g><path fill="none" stroke="rgb(169,169,169)" d="M 935,240 L 935,270" stroke-opacity="1" stroke-width="1" stroke-linecap="butt" stroke-linejoin="miter" stroke-miterlimit="10"/></g><g><path fill="none" stroke="rgb(169,169,169)" d="M 960,240 L 960,250 L 1085,250 L 1085,270" stroke-opacity="1" stroke-width="1" stroke-linecap="butt" stroke-linejoin="miter" stroke-miterlimit="10"/></g><g><path fill="none" stroke="rgb(169,169,169)" d="M 947.5,160 L 947.5,180" stroke-opacity="1" stroke-width="1" stroke-linecap="butt" stroke-linejoin="miter" stroke-miterlimit="10"/></g><g><path fill="none" stroke="rgb(169,169,169)" d="M 647.5,60 L 647.5,80 L 947.5,80 L 947.5,100" stroke-opacity="1" stroke-width="1" stroke-linecap="butt" stroke-linejoin="miter" stroke-miterlimit="10"/></g><g><path fill="none" stroke="rgb(169,169,169)" d="M 1235,240 L 1235,270" stroke-opacity="1" stroke-width="1" stroke-linecap="butt" stroke-linejoin="miter" stroke-miterlimit="10"/></g><g><path fill="none" stroke="rgb(169,169,169)" d="M 1260,240 L 1260,250 L 1385,250 L 1385,270" stroke-opacity="1" stroke-width="1" stroke-linecap="butt" stroke-linejoin="miter" stroke-miterlimit="10"/></g><g><path fill="none" stroke="rgb(169,169,169)" d="M 1247.5,160 L 1247.5,180" stroke-opacity="1" stroke-width="1" stroke-linecap="butt" stroke-linejoin="miter" stroke-miterlimit="10"/></g><g><path fill="none" stroke="rgb(169,169,169)" d="M 660,60 L 660,70 L 1247.5,70 L 1247.5,100" stroke-opacity="1" stroke-width="1" stroke-linecap="butt" stroke-linejoin="miter" stroke-miterlimit="10"/></g><g transform="translate(616.25 0)"><svg svgBox="0 0 50 50" fill="msportalfx-svg-placeholder" role="presentation" focusable="false"><g><title/><path d="M49.7 25.7c.5-.5.4-1.3 0-1.8l-2.4-2.4L36.5 11c-.5-.5-1.2-.5-1.7 0s-.6 1.3 0 1.8l11.3 11.1c.5.5.5 1.3 0 1.8L34.6 37.2c-.5.5-.5 1.3 0 1.8s1.3.4 1.7 0L47 28.4l.1-.1 2.6-2.6zm-49.4 0c-.5-.5-.4-1.3 0-1.8l2.4-2.4L13.5 11c.5-.5 1.2-.5 1.7 0s.6 1.3 0 1.8L4.1 23.9c-.5.5-.5 1.3 0 1.8l11.3 11.5c.5.5.5 1.3 0 1.8s-1.3.4-1.7 0L2.8 28.5l-.1-.1-2.4-2.7z" fill="#3999C6"/><path d="M18.2 24.8c0 1.9-1.6 3.3-3.3 3.3s-3.5-1.6-3.5-3.3 1.4-3.3 3.5-3.3c2 0 3.3 1.6 3.3 3.3zm10.1 0c0 1.9-1.6 3.3-3.3 3.3s-3.5-1.6-3.5-3.3 1.6-3.3 3.5-3.3 3.3 1.6 3.3 3.3z" fill="#7fba00"/><circle cx="35.2" cy="24.8" r="3.3" fill="#7fba00"/></g></svg></g><g transform="translate(160 100)"><svg svgBox="0 0 50 50" fill="msportalfx-svg-placeholder" role="presentation" focusable="false"><g><title/><path d="M49.7 25.7c.5-.5.4-1.3 0-1.8l-2.4-2.4L36.5 11c-.5-.5-1.2-.5-1.7 0s-.6 1.3 0 1.8l11.3 11.1c.5.5.5 1.3 0 1.8L34.6 37.2c-.5.5-.5 1.3 0 1.8s1.3.4 1.7 0L47 28.4l.1-.1 2.6-2.6zm-49.4 0c-.5-.5-.4-1.3 0-1.8l2.4-2.4L13.5 11c.5-.5 1.2-.5 1.7 0s.6 1.3 0 1.8L4.1 23.9c-.5.5-.5 1.3 0 1.8l11.3 11.5c.5.5.5 1.3 0 1.8s-1.3.4-1.7 0L2.8 28.5l-.1-.1-2.4-2.7z" fill="#3999C6"/><path d="M28.4 24.8c0 1.9-1.6 3.3-3.3 3.3-1.7 0-3.5-1.6-3.5-3.3s1.4-3.3 3.5-3.3c2 0 3.3 1.6 3.3 3.3z" fill="#7fba00"/></g></svg></g><g transform="translate(160 180)"><svg svgBox="0 0 50 50" fill="msportalfx-svg-placeholder" role="presentation" focusable="false"><g><title/><path d="M3 0h40.205v50H3z" fill="#7fba00"/><path d="M19.19 4.915h18.921v11.888H19.19z"/><path d="M43.205 3.846h4.501v8.577h-4.501zm0 12.238h4.501v22.825h-4.501z" fill="#fcd116"/><path d="M20.809 31.718h3.243v13.391h-3.243zm-5.244 0h3.243v13.391h-3.243z"/><path opacity=".2" d="M17.636 37.365h-6.144V11.908h8.242v2.098H13.59v21.261h4.046z"/><path opacity=".2" d="M15.538 42.61H7.296V7.713h13.487v2.098H9.394v30.701h6.144zm17.582-2.466h-6.062v-17.31h4.74v-7.799h2.098v9.897h-4.74v13.114h3.964z"/><path d="M23.003 24.11a2.431 2.431 0 0 1-4.862 0 2.43 2.43 0 1 1 4.862 0zm9.843 8.233h4.322v12.365h-4.322z" fill="#e5e5e5"/></g></svg></g><g transform="translate(10 270)"><svg svgBox="0 0 50 50" fill="msportalfx-svg-placeholder" role="presentation" focusable="false"><g><title/><path d="M32.426 38.534H18.83c1.634 5.768-.561 6.595-10.175 6.595v3.02h32.692v-3.02c-9.614 0-10.557-.824-8.921-6.595" fill="#7a7a7a"/><path d="M46.98 2H2.718C1.214 2 .001 3.345.001 4.847v30.866c0 1.493 1.213 2.823 2.717 2.823H46.98c1.501 0 3.021-1.33 3.021-2.823V4.847C50.001 3.341 48.481 2 46.98 2" fill="#a0a1a2"/><path opacity=".2" d="M47.011 2.003l-.031-.002H2.717C1.213 2.001 0 3.345 0 4.848v30.865c0 1.494 1.213 2.824 2.717 2.824H3.77L47.011 2.003z" fill="#fff"/><path d="M46.098 5.848v28.841H3.79V5.848z" fill="#59b4d9"/><path d="M3.79 34.689h.058V5.849l38.68-.058h.002l-38.74.058z" fill="#59b4d9"/><path d="M8.655 45.128h32.692v3.021H8.655z" fill="#a0a1a2"/><path d="M25.518 4.095a.71.71 0 1 1-1.42 0 .71.71 0 0 1 1.42 0" fill="#b8d432"/><path d="M25.546 19.394a.278.278 0 0 1-.134-.038l-8.804-5.082a.267.267 0 0 1 0-.461l8.751-5.049a.268.268 0 0 1 .263 0l8.807 5.084a.264.264 0 0 1 .131.23.262.262 0 0 1-.131.23l-8.748 5.048a.27.27 0 0 1-.135.038" fill="#fff"/><path opacity=".7" d="M24.281 31.746a.251.251 0 0 1-.134-.036l-8.778-5.066a.26.26 0 0 1-.136-.231V16.247c0-.096.051-.183.136-.231a.263.263 0 0 1 .268 0l8.777 5.064a.28.28 0 0 1 .13.233v10.166a.272.272 0 0 1-.13.231.28.28 0 0 1-.133.036" fill="#fff"/><path opacity=".4" d="M26.766 31.746a.287.287 0 0 1-.138-.036.27.27 0 0 1-.129-.231V21.377c0-.094.051-.182.129-.231l8.777-5.064a.26.26 0 0 1 .264 0 .263.263 0 0 1 .135.23v10.101a.261.261 0 0 1-.135.231l-8.774 5.066a.236.236 0 0 1-.129.036" fill="#fff"/></g></svg></g><g transform="translate(160 270)"><svg svgBox="0 0 50 50" fill="msportalfx-svg-placeholder" role="presentation" focusable="false"><g><title/><path d="M38.2 6c-11-1.2-12.9-6-12.9-6S22.8 6.2 7 6.2v25.6c0 3.1 1.7 6 4.1 8.5 5.4 5.7 14.2 9.6 14.2 9.6s18.3-8 18.3-18.1V6.2c-2 0-3.8-.1-5.4-.2z" fill="#3999C6"/><path opacity=".4" d="M29.9 16.5L38.2 6c-11-1.2-12.9-6-12.9-6S22.8 6.2 7 6.2v25.6c0 3.1 1.7 6 4.1 8.5l6.2-7.8 12.6-16z" fill="#59b4d9"/><g fill="#fff"><path opacity=".3" d="M10.8 24.4v6.1c0 2.5 1.4 4.8 3.3 6.8 4.3 4.6 11.3 7.6 11.3 7.6V24.4H10.8z"/><path opacity=".7" d="M25.3 44.9s14.6-6.4 14.6-14.4v-6.1H25.3v20.5zm0-39.8s-2 5-14.6 5v14.3h14.6V5.1z"/><path opacity=".3" d="M35.5 9.9c-8.7-1-10.2-4.7-10.2-4.7v19.2h14.6V10.1c-1.6 0-3.1-.1-4.4-.2z"/></g></g></svg></g><g transform="translate(310 270)"><svg svgBox="0 0 50 50" fill="msportalfx-svg-placeholder" role="presentation" focusable="false"><g><title/><path d="M.5 45.127c0 1.108.898 2.007 2.007 2.007h45.986a2.007 2.007 0 0 0 2.007-2.007V13.798H.5v31.329z" fill="#59b4d9"/><path d="M48.493 4.5H2.507A2.006 2.006 0 0 0 .5 6.507v10.627h50V6.507A2.007 2.007 0 0 0 48.493 4.5" fill="#a0a1a2"/><path opacity=".2" d="M2.514 4.5A2.007 2.007 0 0 0 .507 6.507v38.62c0 1.108.899 2.007 2.007 2.007h2.188L44.12 4.5H2.514z" fill="#fff"/><path d="M13.357 9.279h33.671v3.942H13.357z" fill="#fff"/><path d="M11.81 11.183a4.879 4.879 0 1 1-9.757-.001 4.879 4.879 0 0 1 9.757.001" fill="#59b4d9"/><path d="M6.416 11.732l2.213 2.336H7.428L4.469 11.25l2.948-2.818h1.198l-2.199 2.322h5.393v.978zm11.51 24.844c0 .57-.203 1.037-.609 1.4s-.941.545-1.605.545c-.594 0-1.098-.186-1.512-.557s-.621-.834-.621-1.389c0-.563.207-1.023.621-1.383s.938-.539 1.57-.539c.609 0 1.121.184 1.535.551s.621.825.621 1.372zm8.904 0c0 .57-.203 1.037-.609 1.4s-.941.545-1.605.545c-.594 0-1.098-.186-1.512-.557s-.621-.834-.621-1.389c0-.563.207-1.023.621-1.383s.938-.539 1.57-.539c.609 0 1.121.184 1.535.551s.621.825.621 1.372zm8.903 0c0 .57-.203 1.037-.609 1.4s-.941.545-1.605.545c-.594 0-1.098-.186-1.512-.557s-.621-.834-.621-1.389c0-.563.207-1.023.621-1.383s.938-.539 1.57-.539c.609 0 1.121.184 1.535.551s.621.825.621 1.372z" fill="#fff"/></g></svg></g><g transform="translate(610 100)"><svg svgBox="0 0 50 50" fill="msportalfx-svg-placeholder" role="presentation" focusable="false"><g><title/><path d="M49.7 25.7c.5-.5.4-1.3 0-1.8l-2.4-2.4L36.5 11c-.5-.5-1.2-.5-1.7 0s-.6 1.3 0 1.8l11.3 11.1c.5.5.5 1.3 0 1.8L34.6 37.2c-.5.5-.5 1.3 0 1.8s1.3.4 1.7 0L47 28.4l.1-.1 2.6-2.6zm-49.4 0c-.5-.5-.4-1.3 0-1.8l2.4-2.4L13.5 11c.5-.5 1.2-.5 1.7 0s.6 1.3 0 1.8L4.1 23.9c-.5.5-.5 1.3 0 1.8l11.3 11.5c.5.5.5 1.3 0 1.8s-1.3.4-1.7 0L2.8 28.5l-.1-.1-2.4-2.7z" fill="#3999C6"/><path d="M28.4 24.8c0 1.9-1.6 3.3-3.3 3.3-1.7 0-3.5-1.6-3.5-3.3s1.4-3.3 3.5-3.3c2 0 3.3 1.6 3.3 3.3z" fill="#7fba00"/></g></svg></g><g transform="translate(610 180)"><svg svgBox="0 0 50 50" fill="msportalfx-svg-placeholder" role="presentation" focusable="false"><g><title/><path d="M3 0h40.205v50H3z" fill="#7fba00"/><path d="M19.19 4.915h18.921v11.888H19.19z"/><path d="M43.205 3.846h4.501v8.577h-4.501zm0 12.238h4.501v22.825h-4.501z" fill="#fcd116"/><path d="M20.809 31.718h3.243v13.391h-3.243zm-5.244 0h3.243v13.391h-3.243z"/><path opacity=".2" d="M17.636 37.365h-6.144V11.908h8.242v2.098H13.59v21.261h4.046z"/><path opacity=".2" d="M15.538 42.61H7.296V7.713h13.487v2.098H9.394v30.701h6.144zm17.582-2.466h-6.062v-17.31h4.74v-7.799h2.098v9.897h-4.74v13.114h3.964z"/><path d="M23.003 24.11a2.431 2.431 0 0 1-4.862 0 2.43 2.43 0 1 1 4.862 0zm9.843 8.233h4.322v12.365h-4.322z" fill="#e5e5e5"/></g></svg></g><g transform="translate(460 270)"><svg svgBox="0 0 50 50" fill="msportalfx-svg-placeholder" role="presentation" focusable="false"><g><title/><path d="M32.426 38.534H18.83c1.634 5.768-.561 6.595-10.175 6.595v3.02h32.692v-3.02c-9.614 0-10.557-.824-8.921-6.595" fill="#7a7a7a"/><path d="M46.98 2H2.718C1.214 2 .001 3.345.001 4.847v30.866c0 1.493 1.213 2.823 2.717 2.823H46.98c1.501 0 3.021-1.33 3.021-2.823V4.847C50.001 3.341 48.481 2 46.98 2" fill="#a0a1a2"/><path opacity=".2" d="M47.011 2.003l-.031-.002H2.717C1.213 2.001 0 3.345 0 4.848v30.865c0 1.494 1.213 2.824 2.717 2.824H3.77L47.011 2.003z" fill="#fff"/><path d="M46.098 5.848v28.841H3.79V5.848z" fill="#59b4d9"/><path d="M3.79 34.689h.058V5.849l38.68-.058h.002l-38.74.058z" fill="#59b4d9"/><path d="M8.655 45.128h32.692v3.021H8.655z" fill="#a0a1a2"/><path d="M25.518 4.095a.71.71 0 1 1-1.42 0 .71.71 0 0 1 1.42 0" fill="#b8d432"/><path d="M25.546 19.394a.278.278 0 0 1-.134-.038l-8.804-5.082a.267.267 0 0 1 0-.461l8.751-5.049a.268.268 0 0 1 .263 0l8.807 5.084a.264.264 0 0 1 .131.23.262.262 0 0 1-.131.23l-8.748 5.048a.27.27 0 0 1-.135.038" fill="#fff"/><path opacity=".7" d="M24.281 31.746a.251.251 0 0 1-.134-.036l-8.778-5.066a.26.26 0 0 1-.136-.231V16.247c0-.096.051-.183.136-.231a.263.263 0 0 1 .268 0l8.777 5.064a.28.28 0 0 1 .13.233v10.166a.272.272 0 0 1-.13.231.28.28 0 0 1-.133.036" fill="#fff"/><path opacity=".4" d="M26.766 31.746a.287.287 0 0 1-.138-.036.27.27 0 0 1-.129-.231V21.377c0-.094.051-.182.129-.231l8.777-5.064a.26.26 0 0 1 .264 0 .263.263 0 0 1 .135.23v10.101a.261.261 0 0 1-.135.231l-8.774 5.066a.236.236 0 0 1-.129.036" fill="#fff"/></g></svg></g><g transform="translate(610 270)"><svg svgBox="0 0 50 50" fill="msportalfx-svg-placeholder" role="presentation" focusable="false"><g><title/><path d="M38.2 6c-11-1.2-12.9-6-12.9-6S22.8 6.2 7 6.2v25.6c0 3.1 1.7 6 4.1 8.5 5.4 5.7 14.2 9.6 14.2 9.6s18.3-8 18.3-18.1V6.2c-2 0-3.8-.1-5.4-.2z" fill="#3999C6"/><path opacity=".4" d="M29.9 16.5L38.2 6c-11-1.2-12.9-6-12.9-6S22.8 6.2 7 6.2v25.6c0 3.1 1.7 6 4.1 8.5l6.2-7.8 12.6-16z" fill="#59b4d9"/><g fill="#fff"><path opacity=".3" d="M10.8 24.4v6.1c0 2.5 1.4 4.8 3.3 6.8 4.3 4.6 11.3 7.6 11.3 7.6V24.4H10.8z"/><path opacity=".7" d="M25.3 44.9s14.6-6.4 14.6-14.4v-6.1H25.3v20.5zm0-39.8s-2 5-14.6 5v14.3h14.6V5.1z"/><path opacity=".3" d="M35.5 9.9c-8.7-1-10.2-4.7-10.2-4.7v19.2h14.6V10.1c-1.6 0-3.1-.1-4.4-.2z"/></g></g></svg></g><g transform="translate(760 270)"><svg svgBox="0 0 50 50" fill="msportalfx-svg-placeholder" role="presentation" focusable="false"><g><title/><path d="M.5 45.127c0 1.108.898 2.007 2.007 2.007h45.986a2.007 2.007 0 0 0 2.007-2.007V13.798H.5v31.329z" fill="#59b4d9"/><path d="M48.493 4.5H2.507A2.006 2.006 0 0 0 .5 6.507v10.627h50V6.507A2.007 2.007 0 0 0 48.493 4.5" fill="#a0a1a2"/><path opacity=".2" d="M2.514 4.5A2.007 2.007 0 0 0 .507 6.507v38.62c0 1.108.899 2.007 2.007 2.007h2.188L44.12 4.5H2.514z" fill="#fff"/><path d="M13.357 9.279h33.671v3.942H13.357z" fill="#fff"/><path d="M11.81 11.183a4.879 4.879 0 1 1-9.757-.001 4.879 4.879 0 0 1 9.757.001" fill="#59b4d9"/><path d="M6.416 11.732l2.213 2.336H7.428L4.469 11.25l2.948-2.818h1.198l-2.199 2.322h5.393v.978zm11.51 24.844c0 .57-.203 1.037-.609 1.4s-.941.545-1.605.545c-.594 0-1.098-.186-1.512-.557s-.621-.834-.621-1.389c0-.563.207-1.023.621-1.383s.938-.539 1.57-.539c.609 0 1.121.184 1.535.551s.621.825.621 1.372zm8.904 0c0 .57-.203 1.037-.609 1.4s-.941.545-1.605.545c-.594 0-1.098-.186-1.512-.557s-.621-.834-.621-1.389c0-.563.207-1.023.621-1.383s.938-.539 1.57-.539c.609 0 1.121.184 1.535.551s.621.825.621 1.372zm8.903 0c0 .57-.203 1.037-.609 1.4s-.941.545-1.605.545c-.594 0-1.098-.186-1.512-.557s-.621-.834-.621-1.389c0-.563.207-1.023.621-1.383s.938-.539 1.57-.539c.609 0 1.121.184 1.535.551s.621.825.621 1.372z" fill="#fff"/></g></svg></g><g transform="translate(922.5 100)"><svg svgBox="0 0 50 50" fill="msportalfx-svg-placeholder" role="presentation" focusable="false"><g><title/><path d="M49.7 25.7c.5-.5.4-1.3 0-1.8l-2.4-2.4L36.5 11c-.5-.5-1.2-.5-1.7 0s-.6 1.3 0 1.8l11.3 11.1c.5.5.5 1.3 0 1.8L34.6 37.2c-.5.5-.5 1.3 0 1.8s1.3.4 1.7 0L47 28.4l.1-.1 2.6-2.6zm-49.4 0c-.5-.5-.4-1.3 0-1.8l2.4-2.4L13.5 11c.5-.5 1.2-.5 1.7 0s.6 1.3 0 1.8L4.1 23.9c-.5.5-.5 1.3 0 1.8l11.3 11.5c.5.5.5 1.3 0 1.8s-1.3.4-1.7 0L2.8 28.5l-.1-.1-2.4-2.7z" fill="#3999C6"/><path d="M28.4 24.8c0 1.9-1.6 3.3-3.3 3.3-1.7 0-3.5-1.6-3.5-3.3s1.4-3.3 3.5-3.3c2 0 3.3 1.6 3.3 3.3z" fill="#7fba00"/></g></svg></g><g transform="translate(922.5 180)"><svg svgBox="0 0 50 50" fill="msportalfx-svg-placeholder" role="presentation" focusable="false"><g><title/><path d="M3 0h40.205v50H3z" fill="#7fba00"/><path d="M19.19 4.915h18.921v11.888H19.19z"/><path d="M43.205 3.846h4.501v8.577h-4.501zm0 12.238h4.501v22.825h-4.501z" fill="#fcd116"/><path d="M20.809 31.718h3.243v13.391h-3.243zm-5.244 0h3.243v13.391h-3.243z"/><path opacity=".2" d="M17.636 37.365h-6.144V11.908h8.242v2.098H13.59v21.261h4.046z"/><path opacity=".2" d="M15.538 42.61H7.296V7.713h13.487v2.098H9.394v30.701h6.144zm17.582-2.466h-6.062v-17.31h4.74v-7.799h2.098v9.897h-4.74v13.114h3.964z"/><path d="M23.003 24.11a2.431 2.431 0 0 1-4.862 0 2.43 2.43 0 1 1 4.862 0zm9.843 8.233h4.322v12.365h-4.322z" fill="#e5e5e5"/></g></svg></g><g transform="translate(910 270)"><svg svgBox="0 0 50 50" fill="msportalfx-svg-placeholder" role="presentation" focusable="false"><g><title/><path d="M32.426 38.534H18.83c1.634 5.768-.561 6.595-10.175 6.595v3.02h32.692v-3.02c-9.614 0-10.557-.824-8.921-6.595" fill="#7a7a7a"/><path d="M46.98 2H2.718C1.214 2 .001 3.345.001 4.847v30.866c0 1.493 1.213 2.823 2.717 2.823H46.98c1.501 0 3.021-1.33 3.021-2.823V4.847C50.001 3.341 48.481 2 46.98 2" fill="#a0a1a2"/><path opacity=".2" d="M47.011 2.003l-.031-.002H2.717C1.213 2.001 0 3.345 0 4.848v30.865c0 1.494 1.213 2.824 2.717 2.824H3.77L47.011 2.003z" fill="#fff"/><path d="M46.098 5.848v28.841H3.79V5.848z" fill="#59b4d9"/><path d="M3.79 34.689h.058V5.849l38.68-.058h.002l-38.74.058z" fill="#59b4d9"/><path d="M8.655 45.128h32.692v3.021H8.655z" fill="#a0a1a2"/><path d="M25.518 4.095a.71.71 0 1 1-1.42 0 .71.71 0 0 1 1.42 0" fill="#b8d432"/><path d="M25.546 19.394a.278.278 0 0 1-.134-.038l-8.804-5.082a.267.267 0 0 1 0-.461l8.751-5.049a.268.268 0 0 1 .263 0l8.807 5.084a.264.264 0 0 1 .131.23.262.262 0 0 1-.131.23l-8.748 5.048a.27.27 0 0 1-.135.038" fill="#fff"/><path opacity=".7" d="M24.281 31.746a.251.251 0 0 1-.134-.036l-8.778-5.066a.26.26 0 0 1-.136-.231V16.247c0-.096.051-.183.136-.231a.263.263 0 0 1 .268 0l8.777 5.064a.28.28 0 0 1 .13.233v10.166a.272.272 0 0 1-.13.231.28.28 0 0 1-.133.036" fill="#fff"/><path opacity=".4" d="M26.766 31.746a.287.287 0 0 1-.138-.036.27.27 0 0 1-.129-.231V21.377c0-.094.051-.182.129-.231l8.777-5.064a.26.26 0 0 1 .264 0 .263.263 0 0 1 .135.23v10.101a.261.261 0 0 1-.135.231l-8.774 5.066a.236.236 0 0 1-.129.036" fill="#fff"/></g></svg></g><g transform="translate(1060 270)"><svg svgBox="0 0 50 50" fill="msportalfx-svg-placeholder" role="presentation" focusable="false"><g><title/><path d="M38.2 6c-11-1.2-12.9-6-12.9-6S22.8 6.2 7 6.2v25.6c0 3.1 1.7 6 4.1 8.5 5.4 5.7 14.2 9.6 14.2 9.6s18.3-8 18.3-18.1V6.2c-2 0-3.8-.1-5.4-.2z" fill="#3999C6"/><path opacity=".4" d="M29.9 16.5L38.2 6c-11-1.2-12.9-6-12.9-6S22.8 6.2 7 6.2v25.6c0 3.1 1.7 6 4.1 8.5l6.2-7.8 12.6-16z" fill="#59b4d9"/><g fill="#fff"><path opacity=".3" d="M10.8 24.4v6.1c0 2.5 1.4 4.8 3.3 6.8 4.3 4.6 11.3 7.6 11.3 7.6V24.4H10.8z"/><path opacity=".7" d="M25.3 44.9s14.6-6.4 14.6-14.4v-6.1H25.3v20.5zm0-39.8s-2 5-14.6 5v14.3h14.6V5.1z"/><path opacity=".3" d="M35.5 9.9c-8.7-1-10.2-4.7-10.2-4.7v19.2h14.6V10.1c-1.6 0-3.1-.1-4.4-.2z"/></g></g></svg></g><g transform="translate(1222.5 100)"><svg svgBox="0 0 50 50" fill="msportalfx-svg-placeholder" role="presentation" focusable="false"><g><title/><path d="M49.7 25.7c.5-.5.4-1.3 0-1.8l-2.4-2.4L36.5 11c-.5-.5-1.2-.5-1.7 0s-.6 1.3 0 1.8l11.3 11.1c.5.5.5 1.3 0 1.8L34.6 37.2c-.5.5-.5 1.3 0 1.8s1.3.4 1.7 0L47 28.4l.1-.1 2.6-2.6zm-49.4 0c-.5-.5-.4-1.3 0-1.8l2.4-2.4L13.5 11c.5-.5 1.2-.5 1.7 0s.6 1.3 0 1.8L4.1 23.9c-.5.5-.5 1.3 0 1.8l11.3 11.5c.5.5.5 1.3 0 1.8s-1.3.4-1.7 0L2.8 28.5l-.1-.1-2.4-2.7z" fill="#3999C6"/><path d="M28.4 24.8c0 1.9-1.6 3.3-3.3 3.3-1.7 0-3.5-1.6-3.5-3.3s1.4-3.3 3.5-3.3c2 0 3.3 1.6 3.3 3.3z" fill="#7fba00"/></g></svg></g><g transform="translate(1222.5 180)"><svg svgBox="0 0 50 50" fill="msportalfx-svg-placeholder" role="presentation" focusable="false"><g><title/><path d="M3 0h40.205v50H3z" fill="#7fba00"/><path d="M19.19 4.915h18.921v11.888H19.19z"/><path d="M43.205 3.846h4.501v8.577h-4.501zm0 12.238h4.501v22.825h-4.501z" fill="#fcd116"/><path d="M20.809 31.718h3.243v13.391h-3.243zm-5.244 0h3.243v13.391h-3.243z"/><path opacity=".2" d="M17.636 37.365h-6.144V11.908h8.242v2.098H13.59v21.261h4.046z"/><path opacity=".2" d="M15.538 42.61H7.296V7.713h13.487v2.098H9.394v30.701h6.144zm17.582-2.466h-6.062v-17.31h4.74v-7.799h2.098v9.897h-4.74v13.114h3.964z"/><path d="M23.003 24.11a2.431 2.431 0 0 1-4.862 0 2.43 2.43 0 1 1 4.862 0zm9.843 8.233h4.322v12.365h-4.322z" fill="#e5e5e5"/></g></svg></g><g transform="translate(1210 270)"><svg svgBox="0 0 50 50" fill="msportalfx-svg-placeholder" role="presentation" focusable="false"><g><title/><path d="M32.426 38.534H18.83c1.634 5.768-.561 6.595-10.175 6.595v3.02h32.692v-3.02c-9.614 0-10.557-.824-8.921-6.595" fill="#7a7a7a"/><path d="M46.98 2H2.718C1.214 2 .001 3.345.001 4.847v30.866c0 1.493 1.213 2.823 2.717 2.823H46.98c1.501 0 3.021-1.33 3.021-2.823V4.847C50.001 3.341 48.481 2 46.98 2" fill="#a0a1a2"/><path opacity=".2" d="M47.011 2.003l-.031-.002H2.717C1.213 2.001 0 3.345 0 4.848v30.865c0 1.494 1.213 2.824 2.717 2.824H3.77L47.011 2.003z" fill="#fff"/><path d="M46.098 5.848v28.841H3.79V5.848z" fill="#59b4d9"/><path d="M3.79 34.689h.058V5.849l38.68-.058h.002l-38.74.058z" fill="#59b4d9"/><path d="M8.655 45.128h32.692v3.021H8.655z" fill="#a0a1a2"/><path d="M25.518 4.095a.71.71 0 1 1-1.42 0 .71.71 0 0 1 1.42 0" fill="#b8d432"/><path d="M25.546 19.394a.278.278 0 0 1-.134-.038l-8.804-5.082a.267.267 0 0 1 0-.461l8.751-5.049a.268.268 0 0 1 .263 0l8.807 5.084a.264.264 0 0 1 .131.23.262.262 0 0 1-.131.23l-8.748 5.048a.27.27 0 0 1-.135.038" fill="#fff"/><path opacity=".7" d="M24.281 31.746a.251.251 0 0 1-.134-.036l-8.778-5.066a.26.26 0 0 1-.136-.231V16.247c0-.096.051-.183.136-.231a.263.263 0 0 1 .268 0l8.777 5.064a.28.28 0 0 1 .13.233v10.166a.272.272 0 0 1-.13.231.28.28 0 0 1-.133.036" fill="#fff"/><path opacity=".4" d="M26.766 31.746a.287.287 0 0 1-.138-.036.27.27 0 0 1-.129-.231V21.377c0-.094.051-.182.129-.231l8.777-5.064a.26.26 0 0 1 .264 0 .263.263 0 0 1 .135.23v10.101a.261.261 0 0 1-.135.231l-8.774 5.066a.236.236 0 0 1-.129.036" fill="#fff"/></g></svg></g><g transform="translate(1360 270)"><svg svgBox="0 0 50 50" fill="msportalfx-svg-placeholder" role="presentation" focusable="false"><g><title/><path d="M38.2 6c-11-1.2-12.9-6-12.9-6S22.8 6.2 7 6.2v25.6c0 3.1 1.7 6 4.1 8.5 5.4 5.7 14.2 9.6 14.2 9.6s18.3-8 18.3-18.1V6.2c-2 0-3.8-.1-5.4-.2z" fill="#3999C6"/><path opacity=".4" d="M29.9 16.5L38.2 6c-11-1.2-12.9-6-12.9-6S22.8 6.2 7 6.2v25.6c0 3.1 1.7 6 4.1 8.5l6.2-7.8 12.6-16z" fill="#59b4d9"/><g fill="#fff"><path opacity=".3" d="M10.8 24.4v6.1c0 2.5 1.4 4.8 3.3 6.8 4.3 4.6 11.3 7.6 11.3 7.6V24.4H10.8z"/><path opacity=".7" d="M25.3 44.9s14.6-6.4 14.6-14.4v-6.1H25.3v20.5zm0-39.8s-2 5-14.6 5v14.3h14.6V5.1z"/><path opacity=".3" d="M35.5 9.9c-8.7-1-10.2-4.7-10.2-4.7v19.2h14.6V10.1c-1.6 0-3.1-.1-4.4-.2z"/></g></g></svg></g><g transform="translate(613.5676712614331 46.484375)"><text font-family="Arial" font-size="12px" font-style="normal" font-weight="normal" text-anchor="start" fill="rgb(0,0,0)" fill-opacity="1" dy="1em" transform="translate(0 0)">main_vnet</text></g><g transform="translate(125.30823917363756 146.484375)"><text font-family="Arial" font-size="12px" font-style="normal" font-weight="normal" text-anchor="start" fill="rgb(0,0,0)" fill-opacity="1" dy="1em" transform="translate(0 0)">mgmt_server_subne...</text></g><g transform="translate(150.33629869460023 226.484375)"><text font-family="Arial" font-size="12px" font-style="normal" font-weight="normal" text-anchor="start" fill="rgb(0,0,0)" fill-opacity="1" dy="1em" transform="translate(0 0)">mgmtsrvr-nic</text></g><g transform="translate(-11.355962284934137 316.484375)"><text font-family="Arial" font-size="12px" font-style="normal" font-weight="normal" text-anchor="start" fill="rgb(0,0,0)" fill-opacity="1" dy="1em" transform="translate(0 0)">management_vm</text></g><g transform="translate(136.98292221133346 316.484375)"><text font-family="Arial" font-size="12px" font-style="normal" font-weight="normal" text-anchor="start" fill="rgb(0,0,0)" fill-opacity="1" dy="1em" transform="translate(0 0)">mgmt_server_nsg</text></g><g transform="translate(295.65763650860265 316.484375)"><text font-family="Arial" font-size="12px" font-style="normal" font-weight="normal" text-anchor="start" fill="rgb(0,0,0)" fill-opacity="1" dy="1em" transform="translate(0 0)">mgmt-public-ip</text></g><g transform="translate(581.305246997518 146.484375)"><text font-family="Arial" font-size="12px" font-style="normal" font-weight="normal" text-anchor="start" fill="rgb(0,0,0)" fill-opacity="1" dy="1em" transform="translate(0 0)">public_server_sub...</text></g><g transform="translate(599.6595479338204 226.484375)"><text font-family="Arial" font-size="12px" font-style="normal" font-weight="normal" text-anchor="start" fill="rgb(0,0,0)" fill-opacity="1" dy="1em" transform="translate(0 0)">publicsrvr-nic</text></g><g transform="translate(457.9885627082669 316.484375)"><text font-family="Arial" font-size="12px" font-style="normal" font-weight="normal" text-anchor="start" fill="rgb(0,0,0)" fill-opacity="1" dy="1em" transform="translate(0 0)">public_vm</text></g><g transform="translate(586.3061714505536 316.484375)"><text font-family="Arial" font-size="12px" font-style="normal" font-weight="normal" text-anchor="start" fill="rgb(0,0,0)" fill-opacity="1" dy="1em" transform="translate(0 0)">public_server_nsg</text></g><g transform="translate(744.6469048528925 316.484375)"><text font-family="Arial" font-size="12px" font-style="normal" font-weight="normal" text-anchor="start" fill="rgb(0,0,0)" fill-opacity="1" dy="1em" transform="translate(0 0)">public-ip-config</text></g><g transform="translate(890.796489286172 146.484375)"><text font-family="Arial" font-size="12px" font-style="normal" font-weight="normal" text-anchor="start" fill="rgb(0,0,0)" fill-opacity="1" dy="1em" transform="translate(0 0)">app_server_subnet-0</text></g><g transform="translate(917.8255045197435 226.484375)"><text font-family="Arial" font-size="12px" font-style="normal" font-weight="normal" text-anchor="start" fill="rgb(0,0,0)" fill-opacity="1" dy="1em" transform="translate(0 0)">appsrvr-nic</text></g><g transform="translate(894.9779560908497 316.484375)"><text font-family="Arial" font-size="12px" font-style="normal" font-weight="normal" text-anchor="start" fill="rgb(0,0,0)" fill-opacity="1" dy="1em" transform="translate(0 0)">applictaion_vm</text></g><g transform="translate(1041.9721280364768 316.484375)"><text font-family="Arial" font-size="12px" font-style="normal" font-weight="normal" text-anchor="start" fill="rgb(0,0,0)" fill-opacity="1" dy="1em" transform="translate(0 0)">app_server_nsg</text></g><g transform="translate(1194.133368578502 146.484375)"><text font-family="Arial" font-size="12px" font-style="normal" font-weight="normal" text-anchor="start" fill="rgb(0,0,0)" fill-opacity="1" dy="1em" transform="translate(0 0)">db_server_subnet-0</text></g><g transform="translate(1221.1623838120736 226.484375)"><text font-family="Arial" font-size="12px" font-style="normal" font-weight="normal" text-anchor="start" fill="rgb(0,0,0)" fill-opacity="1" dy="1em" transform="translate(0 0)">dbsrvr-nic</text></g><g transform="translate(1198.9769378590943 316.484375)"><text font-family="Arial" font-size="12px" font-style="normal" font-weight="normal" text-anchor="start" fill="rgb(0,0,0)" fill-opacity="1" dy="1em" transform="translate(0 0)">database_vm</text></g><g transform="translate(1345.309007328807 316.484375)"><text font-family="Arial" font-size="12px" font-style="normal" font-weight="normal" text-anchor="start" fill="rgb(0,0,0)" fill-opacity="1" dy="1em" transform="translate(0 0)">db_server_nsg</text></g></g></svg>